<svg width="512" height="512" xmlns="http://www.w3.org/2000/svg" xmlns:svg="http://www.w3.org/2000/svg" preserveAspectRatio="xMidYMid meet" version="1.0">
 <g class="layer">
  <title>Layer 1</title>
  <g fill="#8ca88a" id="svg_1" transform="translate(0, 512) scale(0.1, -0.1)">
   <path d="m236,4803c-92,-28 -168,-94 -210,-183c-21,-45 -21,-47 -24,-1277l-2,-1233l2560,0l2560,0l-2,1233l-3,1232l-23,45c-48,98 -114,155 -212,184c-48,14 -280,16 -2324,15c-2001,0 -2277,-2 -2320,-16zm1594,-972c50,-27 84,-96 75,-153c-6,-39 -23,-59 -173,-210l-166,-168l166,-167c149,-151 167,-172 173,-211c18,-111 -95,-201 -202,-162c-32,12 -457,431 -479,472c-18,35 -18,101 0,136c16,30 440,454 471,471c31,16 97,13 135,-8zm1010,-3c41,-29 70,-82 70,-130c0,-55 -417,-887 -460,-918c-97,-69 -226,-10 -238,108c-4,45 6,67 203,462c114,228 216,427 226,441c42,59 140,77 199,37zm583,11c31,-16 455,-439 473,-471c8,-15 14,-45 14,-68c0,-23 -6,-53 -14,-68c-22,-41 -447,-460 -479,-472c-107,-39 -220,51 -202,162c6,39 24,60 173,211l166,167l-166,168c-150,151 -167,171 -173,210c-9,57 25,128 75,154c39,20 100,24 133,7z" id="svg_2"/>
   <path d="m2,1633c3,-168 4,-181 29,-234c51,-108 141,-173 266,-190c41,-6 954,-8 2313,-7l2245,3l57,23c73,29 141,96 176,170c26,54 27,66 30,235l4,177l-2562,0l-2562,0l4,-177z" id="svg_3"/>
   <path d="m1725,750l-49,-150l-179,0c-191,0 -209,-4 -256,-54c-37,-39 -41,-128 -9,-176c51,-75 -52,-70 1328,-70c1156,0 1237,1 1270,18c103,51 108,201 8,262c-30,18 -51,20 -213,20l-181,0l-49,150l-49,150l-786,0l-786,0l-49,-150z" id="svg_4"/>
  </g>
 </g>

</svg>